<?xml version="1.0" standalone="no"?>
<!DOCTYPE svg PUBLIC "-//W3C//DTD SVG 1.1//EN" "http://www.w3.org/Graphics/SVG/1.1/DTD/svg11.dtd" >
<svg xmlns="http://www.w3.org/2000/svg">
<metadata>
Created by FontForge 20120731 at Tue Dec 15 18:13:11 2015
 By Ads
</metadata>
<defs>
<font id="iconfont" horiz-adv-x="1024" >
  <font-face 
    font-family="iconfont"
    font-weight="500"
    font-stretch="normal"
    units-per-em="1024"
    panose-1="2 0 6 3 0 0 0 0 0 0"
    ascent="896"
    descent="-128"
    x-height="792"
    bbox="-960 -224 1303 845"
    underline-thickness="50"
    underline-position="-100"
    unicode-range="U+0078-E62B"
  />
<missing-glyph horiz-adv-x="374" 
d="M34 0v682h272v-682h-272zM68 34h204v614h-204v-614z" />
    <glyph glyph-name=".notdef" horiz-adv-x="374" 
d="M34 0v682h272v-682h-272zM68 34h204v614h-204v-614z" />
    <glyph glyph-name=".null" horiz-adv-x="0" 
 />
    <glyph glyph-name="nonmarkingreturn" horiz-adv-x="341" 
 />
    <glyph glyph-name="x" unicode="x" horiz-adv-x="1001" 
d="M281 543q-27 -1 -53 -1h-83q-18 0 -36.5 -6t-32.5 -18.5t-23 -32t-9 -45.5v-76h912v41q0 16 -0.5 30t-0.5 18q0 13 -5 29t-17 29.5t-31.5 22.5t-49.5 9h-133v-97h-438v97zM955 310v-52q0 -23 0.5 -52t0.5 -58t-10.5 -47.5t-26 -30t-33 -16t-31.5 -4.5q-14 -1 -29.5 -0.5
t-29.5 0.5h-32l-45 128h-439l-44 -128h-29h-34q-20 0 -45 1q-25 0 -41 9.5t-25.5 23t-13.5 29.5t-4 30v167h911zM163 247q-12 0 -21 -8.5t-9 -21.5t9 -21.5t21 -8.5q13 0 22 8.5t9 21.5t-9 21.5t-22 8.5zM316 123q-8 -26 -14 -48q-5 -19 -10.5 -37t-7.5 -25t-3 -15t1 -14.5
t9.5 -10.5t21.5 -4h37h67h81h80h64h36q23 0 34 12t2 38q-5 13 -9.5 30.5t-9.5 34.5q-5 19 -11 39h-368zM336 498v228q0 11 2.5 23t10 21.5t20.5 15.5t34 6h188q31 0 51.5 -14.5t20.5 -52.5v-227h-327z" />
    <glyph glyph-name="uniE600" unicode="&#xe600;" 
d="M506 41q-8 7 -18 6.5t-17 -7.5q-35 -37 -84 -54q31 39 39 87q2 12 2.5 24t-0.5 24q-1 10 -9 16t-18 5h-1h-1q-3 1 -5 1q-125 8 -211.5 77t-86.5 163q0 65 43.5 120t118 87t162.5 32q98 0 179.5 -40t119.5 -107q3 -6 9 -9.5t12 -3.5t12 3q9 5 12 14.5t-2 17.5
q-44 79 -137.5 126t-204.5 47q-101 0 -187 -38.5t-135.5 -105t-49.5 -143.5q0 -110 95.5 -192t236.5 -94l-2 -16q-6 -37 -29 -65.5t-58 -42.5q-9 -4 -13 -12.5t-1 -17.5q2 -5 5.5 -8.5t8 -5.5t9.5 -2q58 -3 112.5 18t94.5 62q3 4 5 8.5t1.5 9t-2.5 9t-5 7.5zM304 -73
q1 0 2 1q-1 -1 -2 -1zM977 219q0 80 -75 137t-180.5 57t-180.5 -57t-75 -137q0 -68 56 -120.5t142 -67.5q11 -25 28.5 -45t40 -34t49.5 -21t55 -5h1h1h-1q10 0 14 9q7 13 -7 20l-1 1q-24 10 -39.5 29.5t-19.5 43.5q0 1 -1 3q84 16 138.5 68t54.5 119zM843 -44l-6 1q3 0 6 -1
zM831 -73h-1h1z" />
    <glyph glyph-name="uniE601" unicode="&#xe601;" 
d="M958 403l-309 45l-137 279l-138 -279l-308 -45l223 -217l-53 -307l276 145l275 -145l-52 307zM512 93l-195 -103l37 217l-157 154l217 31l98 198l97 -198l218 -31l-158 -154l37 -217z" />
    <glyph glyph-name="uniE602" unicode="&#xe602;" horiz-adv-x="1048" 
d="M898 -31q0 -62 -29 -90q-40 -41 -78 -41h-500q-22 0 -47 11.5t-44 29.5q-12 12 -21 27.5t-14 32t-5 30.5v393h-48v-393q0 -32 15 -65.5t40 -58.5q8 -8 17.5 -15.5t19.5 -13.5t21 -10.5t22 -8t22 -5.5t22 -2h500q57 0 112 55q22 22 32.5 53.5t10.5 70.5v393h-48v-393z
M398 -162l24 -24v298q0 19 6 37t17 33t25.5 26t32.5 17t38 6q49 0 84 -35t35 -84v-298l24 24h-286zM707 -210v24v298q0 69 -48.5 118t-117.5 49q-34 0 -65 -13.5t-53 -36t-35.5 -53t-13.5 -64.5v-298v-24h24h286h23zM493 729q15 14 34 14q6 0 12 -1.5t11 -4.5t8 -7l454 -451
l34 33l-453 450q-23 29 -66 29q-10 0 -19 -2t-17.5 -6t-16.5 -9t-14 -12l-448 -450l34 -33z" />
    <glyph glyph-name="uniE603" unicode="&#xe603;" horiz-adv-x="1025" 
d="M880 392q0 -15 -11 -26t-26 -11l-63 29q-36 46 -37 72v91q0 15 11 26t26 11h63q15 0 26 -11t11 -26v-155zM548 685q7 -9 7 -19.5t-8 -17.5l-492 -421q-7 -6 -17.5 -4.5t-18.5 9.5l-12 15q-7 8 -7 19t8 18l493 420q4 4 8.5 5t9.5 0.5t9.5 -3t8.5 -7.5zM1003 224
q-8 -8 -19 -9.5t-18 5.5l-485 428q-7 7 -7 18t7 19l13 14q7 9 18 10t18 -6l486 -429q2 -2 4 -5t2.5 -6t0.5 -6.5t-0.5 -6.5t-2.5 -6.5t-4 -5.5zM150 -110h214v195q0 2 1 6t5 15t10 21t17 22t25 21q24 15 57 20t66 0t56 -20q7 -5 14 -10.5t12 -12t10 -14t8 -14.5t5.5 -13.5
t3.5 -12t1 -10.5v-193h225v305v11q0 6 -8.5 23.5t-25.5 30.5t-91.5 76t-140.5 120l-66 56q-2 1 -4.5 3.5t-10 6.5t-15.5 5.5t-19 -2t-21 -13.5q-36 -36 -304 -254q-26 -26 -26 -58.5t2 -309.5v0zM880 -110h-225v194q0 18 -15 45t-39 41q-17 11 -40.5 16.5t-48.5 5.5
q-52 0 -89 -22q-14 -8 -24.5 -20t-17 -22.5t-10.5 -20.5t-5 -15.5t-1 -6.5v-196h-215v311q0 31 25 58q3 2 70.5 57t143 118t90.5 79q17 16 34 16q3 0 6.5 -0.5t6.5 -1t5.5 -2t5 -2.5t4.5 -2.5t3 -3.5l3 -2l1 -2h1q1 -2 66.5 -57.5t139.5 -118t91 -75.5q8 -6 14 -12.5
t9.5 -13t6 -12.5t3 -11t1 -9t0.5 -6v-2v-305zM656 -109h223v304q0 4 -0.5 10.5t-8.5 24t-25 30.5q-8 6 -28.5 23t-47 39t-57 48t-59.5 50.5t-52.5 44.5t-38.5 33l-15 13q-2 2 -5 4.5t-12 6.5t-18 4q-17 0 -33 -15q-44 -44 -298 -249q-5 -4 -6 -5q-25 -26 -25 -57v-309h213
v194q0 15 17 43q17 27 42 43q18 11 41 17t49 6q25 0 48.5 -6t41.5 -17q40 -25 53 -71q2 -9 2 -16z" />
    <glyph glyph-name="uniE604" unicode="&#xe604;" 
d="M1007 354l-495 463l-495 -462q-7 -7 -7.5 -17t6.5 -17t16.5 -7.5t17.5 6.5l462 431l462 -433q4 -3 8 -4.5t9 -1.5q10 0 17 8q7 7 6.5 17t-7.5 17zM856 344q-10 0 -17 -7t-7 -17v-368h-192v256h-256v-256h-192v368q0 10 -7 17t-17 7t-17 -7t-7 -17v-416h288v256h160v-256
h288v416q0 10 -7 17t-17 7zM688 688h144v-128q0 -10 7 -17t17 -7t17 7t7 17v176h-192q-10 0 -17 -7t-7 -17t7 -17t17 -7z" />
    <glyph glyph-name="uniE605" unicode="&#xe605;" 
d="M913 400q-9 10 -23 14q-9 3 -20 3h-230q-5 -1 -11.5 4t-7.5 10l-66 239q-4 13 -10 22q-3 4 -6.5 7.5t-11 7t-15.5 3.5q-12 0 -20 -5.5t-13 -12.5q-6 -9 -10 -22l-66 -239q-1 -5 -7.5 -10t-11.5 -4h-230q-4 0 -6.5 -0.5t-6 -1t-7 -1.5t-7.5 -2q-3 -2 -5.5 -3t-5.5 -3
l-5 -6q-9 -11 -8 -24q0 -15 10 -28q7 -7 16 -14l186 -122q3 -1 6 -7.5t3 -11.5l-1 -4l-72 -236q-4 -12 -4 -22q1 -14 8 -25q5 -7 14 -11.5t17 -4.5h6l4 2q3 0 5 0.5t3.5 1.5t3.5 2l3 2q1 0 3 1.5t3 2t3 2t3 2.5l181 154q3 3 9 3t10 -3l191 -155q0 -1 3 -3t3.5 -2.5t3.5 -2
t4.5 -2.5t4 -2t5 -1.5t5.5 -1t6 -0.5h2q3 0 7.5 1t8 3t7.5 5t6.5 6.5t4 7t1.5 6.5l2 6v6v4q0 2 -0.5 4t-1 3.5t-0.5 3.5l-2 4v3l-81 238q0 1 -0.5 2t-0.5 2q0 3 1.5 7t3 7t3.5 3l185 122q9 7 16 14q10 13 10 28q0 6 -2 12.5t-6 11.5z" />
    <glyph glyph-name="uniE606" unicode="&#xe606;" 
d="M939 236l-434 410l-434 -434l-48 72l482 482l506 -482zM240 -102h554v265h73v-265q0 -30 -21.5 -51t-51.5 -21h-554q-30 0 -51.5 21t-21.5 51v265h73v-265z" />
    <glyph glyph-name="uniE607" unicode="&#xe607;" 
d="M510 805q-103 0 -196.5 -40t-161 -107.5t-107.5 -161t-40 -196.5t40 -196.5t107.5 -161t161 -107.5t196 -40t196 40t161 107.5t107.5 161t40 196.5q0 59 -13 115.5t-38 106.5t-59.5 93.5t-78.5 78t-93.5 59.5t-106 38.5t-115.5 13.5zM543 -2q-22 -21 -59 -21
q-35 0 -57 21q-23 22 -22 56q0 17 5.5 31.5t16.5 24.5q11 11 25.5 16t31.5 5q18 0 33 -5t26 -16q23 -21 23 -56q0 -34 -23 -56zM678 384q-12 -29 -30 -50q-17 -21 -38 -37q-2 -1 -4.5 -3t-4.5 -4t-4.5 -3.5t-4.5 -3.5l-4 -4l-4 -4l-4 -4l-4 -4q-15 -15 -26 -35
q-10 -19 -10 -51v-14h-105h-13l-1 13q-1 15 -1 28q0 28 6 50q4 16 10 30t14 25q15 24 35 41q19 16 34 31q15 13 25 28q8 12 8 30q0 23 -12 37q-2 2 -5 4t-7 3.5t-9 2.5t-11.5 1.5t-14.5 0.5q-6 0 -12 -0.5t-13 -2t-13.5 -3t-13.5 -4.5q-15 -5 -27 -11q-12 -7 -23 -14l-13 -9
l-54 104l10 7q33 22 76 37t102 15q41 0 73.5 -10t56.5 -31q16 -14 27 -31t16 -37.5t5 -42.5q0 -45 -12 -75z" />
    <glyph glyph-name="uniE608" unicode="&#xe608;" 
d="M656 403l-42 -26q-30 -26 -42.5 -53t-12.5 -76h-78v37q0 35 12 53t44 47l40 59q14 11 21 27.5t7 37.5q0 19 -7 33.5t-20 24t-30 14.5t-36 5q-38 0 -65.5 -27t-27.5 -65h-93q0 76 54.5 130t131.5 54q51 0 93.5 -21t67.5 -59.5t25 -88.5q0 -56 -42 -106zM584 85h-123v82
h123v-82zM838 800h-652q-19 0 -36 -5t-29.5 -15t-20 -25t-7.5 -33v-667q0 -38 27.5 -65.5t65.5 -27.5h186l140 -186l140 186h186q38 0 65.5 27.5t27.5 65.5v667q0 36 -26.5 57t-66.5 21z" />
    <glyph glyph-name="uniE609" unicode="&#xe609;" 
d="M-64 -212h-832q-26 0 -45 19t-19 45v768q0 26 19 45t45 19h96q13 0 22.5 -9.5t9.5 -22.5t-9.5 -22.5t-22.5 -9.5h-96v-768h832v768h-96q-13 0 -22.5 9.5t-9.5 22.5t9.5 22.5t22.5 9.5h96q26 0 45 -19t19 -45v-768q0 -26 -19 -45t-45 -19zM-800 460h640q13 0 22.5 -9.5
t9.5 -22.5t-9.5 -22.5t-22.5 -9.5h-640q-13 0 -22.5 9.5t-9.5 22.5t9.5 22.5t22.5 9.5zM-800 76h640q13 0 22.5 -9.5t9.5 -22.5t-9.5 -22.5t-22.5 -9.5h-640q-13 0 -22.5 9.5t-9.5 22.5t9.5 22.5t22.5 9.5zM-800 268h640q13 0 22.5 -9.5t9.5 -22.5t-9.5 -22.5t-22.5 -9.5
h-640q-13 0 -22.5 9.5t-9.5 22.5t9.5 22.5t22.5 9.5zM-288 620h-384q-13 0 -22.5 9.5t-9.5 22.5t9.5 22.5t22.5 9.5h64q0 53 37.5 90.5t90.5 37.5t90.5 -37.5t37.5 -90.5h64q13 0 22.5 -9.5t9.5 -22.5t-9.5 -22.5t-22.5 -9.5zM-480 748q-26 0 -45 -19t-19 -45h128
q0 26 -19 45t-45 19zM954 -180v0q0 -13 -9.5 -22.5t-22.5 -9.5t-22.5 9.5t-9.5 22.5q0 104 -51.5 192.5t-140 140t-192.5 51.5t-192.5 -51.5t-140 -140t-51.5 -192.5q0 -13 -9.5 -22.5t-22.5 -9.5t-22.5 9.5t-9.5 22.5q0 145 84.5 261t218.5 162q-65 39 -104 105t-39 144
q0 119 84.5 203.5t203.5 84.5t203.5 -84.5t84.5 -203.5q0 -52 -18 -100t-50 -86t-75 -63q88 -30 156.5 -92t107.5 -148.5t39 -182.5zM730 492q0 62 -30 114.5t-81.5 83t-112.5 30.5t-112.5 -30.5t-81.5 -83t-30 -114.5q0 -43 15 -82t41 -68.5t61.5 -49.5t76.5 -26q1 0 7 0.5
t8.5 1t6.5 0.5h8h5h5q2 0 5 -0.5t5 -0.5t5 -0.5t5 -0.5q54 8 98.5 39.5t70 80.5t25.5 106z" />
    <glyph glyph-name="uniE60A" unicode="&#xe60a;" 
d="M511 -123q-3 0 -5.5 1t-4.5 2t-4 3l-321 344q-113 119 -113 257q0 71 28 125.5t79.5 84.5t117.5 30q42 0 74 -8.5t59 -29.5t44 -39t46 -53q23 28 36 43t34.5 34.5t41 29t48 16.5t62.5 7q101 0 163 -66.5t62 -173.5q0 -138 -113 -257l-321 -344q-5 -6 -13 -6z" />
    <glyph glyph-name="uniE60B" unicode="&#xe60b;" 
d="M718 -211q-149 -8 -305 35q-298 80 -382 309q-31 84 -31 185t39.5 192.5t105.5 157.5t157.5 105t192 39t191.5 -39t157.5 -105t105.5 -157.5t39 -192.5q0 -38 -8.5 -76.5t-18.5 -64.5t-18.5 -58.5t-8.5 -60.5t9 -52.5t22 -41t26.5 -30t23 -25.5t9.5 -22q0 -8 -8.5 -19.5
t-30.5 -26t-55 -26t-88.5 -19t-123.5 -7.5zM525 534h-24l-212 -468h71l67 147h171l68 -147h69zM513 402l56 -125h-113z" />
    <glyph glyph-name="uniE60C" unicode="&#xe60c;" 
d="M647 347q39 31 61.5 76t22.5 96q0 26 -5.5 50.5t-16.5 46t-26 41t-34 34.5t-40.5 25.5t-46 16.5t-50.5 6q-91 0 -155 -64.5t-64 -155.5q0 -51 22.5 -96t61.5 -76q-68 -27 -120 -77t-81.5 -118.5t-29.5 -144.5v-73q0 -15 11 -25.5t26 -10.5h658q15 0 26 10.5t11 25.5v73
q0 114 -64 206.5t-167 133.5zM512 666q60 0 103 -43t43 -104q0 -29 -11.5 -56t-31 -47t-46.5 -31.5t-57 -11.5q-61 0 -103.5 43t-42.5 103q0 40 19.5 74t53 53.5t73.5 19.5zM805 -29h-586v36q0 121 86 207t207 86t207 -86t86 -207v-36zM267 334l2 7q0 3 1 4q0 4 -1 9v2v2
q0 1 -1 2q0 2 -2 5q-3 5 -5 9h-1l-1 1q-4 5 -11 8q-30 13 -47.5 40t-17.5 60q0 38 23.5 68t60.5 38q15 4 22.5 17t4 27.5t-16.5 22.5t-27 5q-62 -15 -101 -65t-39 -113q0 -70 47 -123q-101 -52 -140 -160q-17 -48 -17 -99v-57q0 -15 10.5 -26t26 -11t26 11t10.5 26v57
q0 50 21 94t58.5 75t86.5 43q9 1 16.5 6.5t11.5 14.5zM867 360q47 53 47 123q0 30 -10 59t-27.5 52t-43 40.5t-54.5 24.5q-10 3 -19.5 0.5t-16 -9.5t-9.5 -16.5t-0.5 -19t9.5 -16.5t17 -9q36 -10 58.5 -39.5t22.5 -66.5q0 -22 -8 -41.5t-23 -35t-34 -23.5q-7 -3 -12 -8v-1
h-1l-5 -9l-1 -1l-1 -4l-2 -2v-2l1 -2q-1 -5 -1 -9q0 -1 1 -3v-1q0 -1 1 -2l1 -5q4 -9 11.5 -14.5t16.5 -6.5q73 -18 119.5 -77.5t46.5 -134.5v-57q0 -15 10.5 -26t25.5 -11t26 11t11 26v57q0 83 -42.5 152.5t-114.5 106.5z" />
    <glyph glyph-name="uniE60D" unicode="&#xe60d;" 
d="M522 330.5q0 -28.5 8 -43.5t32 -15h188q23 0 31.5 15.5t8.5 43.5t-8.5 43.5t-31.5 15.5h-188q-24 0 -32 -15.5t-8 -44zM779 250h-251q-16 0 -25.5 -8.5t-12.5 -20.5t-3 -30t3 -30t12.5 -20.5t25.5 -8.5h251q24 0 32.5 15.5t8.5 43.5t-8.5 43.5t-32.5 15.5zM760 108h-199
q-23 0 -31.5 -15.5t-8.5 -43.5t8.5 -43.5t31.5 -15.5h199q23 0 31.5 15.5t8.5 43.5q0 13 -1.5 23t-5.5 18.5t-12.5 13t-20.5 4.5zM707 -37h-113q-16 0 -25.5 -8.5t-12 -20.5t-2.5 -30q0 -9 0.5 -16t2 -14t4.5 -12t7.5 -9t11 -6t14.5 -2h113q24 0 32.5 15.5t8.5 43.5
t-8.5 43.5t-32.5 15.5zM548 -31q-11 1 -20 6t-14 10.5t-9 11.5q-10 18 -10 52q0 17 2.5 29.5t7.5 22.5q2 2 4 5t4 5q-28 4 -41 28q-3 5 -5 10.5t-3 11.5t-1.5 13.5t-0.5 16.5t0.5 16t1.5 13.5t3 12t5 10.5q12 23 40 27q-2 2 -3.5 4.5t-2.5 4.5q-5 9 -7.5 21.5t-2.5 30.5
q0 33 10 51q4 8 10 14t17 10.5t26 4.5h38q1 8 14.5 27t28.5 41t27.5 59.5t12.5 77.5q0 22 -5 39t-13.5 29t-19.5 21t-23 14t-24 8.5t-23 4t-19 1t-13 0.5l-5 -1v-81q-9 -31 -40.5 -73t-74.5 -82.5t-72 -66t-57 -47.5q-43 -21 -67.5 -60t-24.5 -89v-199q0 -51 26.5 -94
t71.5 -68t98 -25h146l-3 5q-5 10 -7.5 22.5t-2.5 29.5q0 34 10 52q4 7 10 13z" />
    <glyph glyph-name="uniE60E" unicode="&#xe60e;" 
d="M512 637q-77 73 -183 73q-110 0 -187.5 -77.5t-77.5 -187.5q0 -56 25.5 -117.5t62.5 -112.5t88.5 -103.5t94 -88.5t89 -70.5t63 -45t25.5 -16.5q9 6 25 16.5t62.5 45t89 70t94 88.5t88.5 104t62.5 112.5t25.5 117.5q0 110 -77.5 187.5t-187.5 77.5q-35 0 -68 -9
t-61.5 -25t-52.5 -39zM512 637z" />
    <glyph glyph-name="uniE60F" unicode="&#xe60f;" 
d="M896 736h-768q-35 0 -64.5 -17t-46.5 -47t-17 -65v-382q0 -54 37.5 -91.5t90.5 -37.5h320l320 -256v256h128q53 0 90.5 37.5t37.5 91.5v382q0 67 -54 105q-34 24 -74 24zM192 352q-26 0 -45 19t-19 45t19 45t45 19t45 -19t19 -45t-19 -45t-45 -19zM512 352q-26 0 -45 19
t-19 45t19 45t45 19t45 -19t19 -45t-19 -45t-45 -19zM832 352q-26 0 -45 19t-19 45t19 45t45 19t45 -19t19 -45t-19 -45t-45 -19z" />
    <glyph glyph-name="uniE610" unicode="&#xe610;" horiz-adv-x="1303" 
d="M1303 482v-578q0 -48 -34 -82q-17 -17 -38 -25.5t-45 -8.5h-1070q-48 0 -82 34q-17 17 -25.5 37.5t-8.5 44.5v578q31 -36 73 -63q267 -182 362 -251q19 -14 35.5 -26t31.5 -22q25 -16 69 -35q42 -18 80 -18h1q38 0 80 18q45 19 68 35q27 18 68 48q124 90 362 251
q21 14 39 29.5t34 33.5zM1303 696q0 -20 -4 -38.5t-12 -36.5t-20 -35q-18 -27 -40 -49t-49 -41q-302 -209 -340 -236l-31 -23l-39 -27q-78 -53 -116 -50h-1q-34 0 -79 27l-38 23l-39 27l-30 23q-30 21 -191 132l-149 104q-45 31 -85 84q-13 18 -22 35t-13.5 33t-4.5 32
q0 58 31 95t85 37h1070q10 0 19 -1.5t17.5 -4t16 -7t15 -9.5t14.5 -12q35 -34 35 -82z" />
    <glyph glyph-name="uniE611" unicode="&#xe611;" 
d="M939 15l-226 88q-44 17 -60 33t-1 68q3 9 24 40.5t43 66.5t40.5 83.5t18.5 88.5q0 89 -36 165t-97.5 120t-133.5 44q-37 0 -71.5 -12t-63.5 -33t-53.5 -51.5t-42 -66.5t-27 -78.5t-9.5 -87.5q0 -32 10.5 -68.5t27 -69.5t32 -59.5t30 -48.5t16.5 -26q9 -18 8.5 -41
t-8.5 -32q-3 -2 -7 -5t-8.5 -5.5t-10 -5t-10.5 -5t-10.5 -4.5t-9.5 -3.5t-7.5 -2.5t-5.5 -2h-2l-204 -91q-36 -13 -60 -44.5t-24 -68.5v-24q0 -40 28.5 -64.5t71.5 -24.5h341h117h364q12 0 23 2t21 6t19 9.5t15.5 13t11.5 16.5t7.5 19.5t2.5 22.5v24q0 37 -24 69t-60 45z
M939 15z" />
    <glyph glyph-name="uniE612" unicode="&#xe612;" 
d="M998 -55q-26 -37 -69 -82q-36 -38 -58 -51t-36 -13h-2q-17 1 -32 2.5t-51.5 12t-75.5 28.5q-158 75 -351 267.5t-267 350.5q-41 86 -43 159v1q-1 33 64 96q44 42 82 69q11 7 24.5 11.5t28.5 3.5q27 -3 41 -22q8 -11 66.5 -99.5t68.5 -104.5q20 -31 -5 -77
q-10 -19 -51 -92q42 -62 134 -153q107 -107 162 -140q7 -4 9 -12.5t-2 -15.5q-3 -4 -7.5 -7t-10 -2.5t-9.5 2.5q-59 35 -171 147q-113 113 -146 170q-3 5 -3 10t3 10q53 94 57 102q13 25 7 36l-37 56q-31 46 -61.5 93t-36.5 54q-3 4 -13 4.5t-25 -7.5q-35 -25 -77 -65
q-23 -22 -36 -39t-14.5 -21t-1.5 -6v-1q2 -65 39 -143q72 -151 259.5 -339t339.5 -260q78 -36 143 -39q5 0 15 7q21 13 52 45q40 42 64 77q9 15 8.5 25t-5.5 14q-11 8 -99.5 66.5t-102.5 67.5q-9 5 -30 -4q-4 -1 -7 -3q-5 -2 -10 -2t-9.5 3t-7.5 8q-2 5 -2 10t3 9.5t8 7.5
q4 2 9 4q19 8 36.5 8.5t30.5 -7.5q9 -6 57 -37.5t94 -62t53 -36.5q20 -13 22.5 -40.5t-15.5 -53.5z" />
    <glyph glyph-name="uniE613" unicode="&#xe613;" 
d="M772 116q-59 59 -137 87q41 20 74 52q81 82 81 197q0 56 -21 106.5t-60 90.5q-82 81 -197 81q-56 0 -106.5 -21t-90.5 -60q-81 -82 -81 -197t81 -197q33 -32 74 -52q-39 -14 -73.5 -36t-63.5 -51q-102 -102 -107 -246h48q6 124 93 212q86 85 207 92h19h4h4h3h4h4
q121 -7 207 -92q87 -88 93 -212h48q-2 70 -29.5 133t-77.5 113zM282 452q0 95 67.5 162.5t162.5 67.5t162.5 -67.5t67.5 -162.5q0 -44 -16.5 -85t-45 -71t-67.5 -49.5t-82 -23.5q-10 1 -19 1t-19 -1q-88 7 -149.5 73t-61.5 156z" />
    <glyph glyph-name="uniE614" unicode="&#xe614;" 
d="M249 324q-4 0 -6 -1q3 1 6 1v0zM924 55v3v-3zM969 551v1v0v-1zM924 552v-1v1v0zM951 -124q-5 35 -15.5 69t-25.5 66q-6 13 -13 25q-31 51 -73 93q-10 10 -20 18q-70 62 -159 90q16 9 31 20q16 12 31 27q81 81 81 195q0 56 -21 106t-60 90q-38 38 -87.5 59t-103.5 21h-4
h-3q-112 -1 -191 -80q-26 -26 -44.5 -57.5t-27.5 -66.5t-9 -72q0 -114 81 -195q7 -7 15 -14t16 -13q15 -11 31 -20q-89 -28 -160 -90q-9 -9 -19 -18q-43 -42 -73 -93q-7 -12 -13 -25q-10 -21 -18.5 -43.5t-14 -45.5t-8.5 -46q-2 -12 5 -21t19 -10h3h2h2q18 4 21 23
q19 131 114 227q55 55 125.5 86t146.5 31h1q77 0 147 -31t125 -86q95 -96 114 -227q3 -19 21 -23h4h3q12 1 18.5 10t5.5 21zM512 258h-2q-77 1 -139 48.5t-81 120.5q0 2 -1 3q-1 4 -1.5 8t-1.5 8t-1.5 8t-0.5 8.5t-0.5 8.5t-0.5 8q0 25 6 50q1 1 1 3q19 75 82 126t140 51h1
q77 0 140 -51t82 -126q0 -2 1 -3q6 -25 6 -50q0 -12 -1.5 -24.5t-4.5 -24.5q-1 -1 -1 -2v-1q-19 -73 -81 -120.5t-139 -48.5h-3v0zM512 258z" />
    <glyph glyph-name="uniE615" unicode="&#xe615;" 
d="M939 22h-599l-169 -168v168h-86q-35 0 -60 25t-25 60v554q0 9 2 17.5t5 16t7.5 14.5t10.5 12.5t13 10.5t14.5 8t16 4.5t16.5 1.5h854q17 0 32.5 -6.5t27 -18t18.5 -27t7 -33.5v-554q0 -35 -25 -60t-60 -25zM981 661q0 18 -12.5 30.5t-29.5 12.5h-854q-17 0 -29.5 -12.5
t-12.5 -30.5v-554q0 -11 5.5 -21t15.5 -15.5t21 -5.5h86h42v-43v-66l97 96l12 13h18h599q8 0 16 3.5t13.5 9t9 13.5t3.5 16v554zM512 342q-12 0 -21.5 5.5t-15.5 15.5t-6 21q0 18 12.5 30.5t30.5 12.5t30.5 -12.5t12.5 -30t-12.5 -30t-30.5 -12.5zM341 342q-17 0 -29.5 12.5
t-12.5 29.5q0 12 5.5 21.5t15.5 15.5t21 6q18 0 30.5 -12.5t12.5 -30t-12.5 -30t-30.5 -12.5zM679 342q-18 0 -30.5 12.5t-12.5 30t12.5 30t30 12.5t30 -12.5t12.5 -30t-12.5 -30t-29.5 -12.5z" />
    <glyph glyph-name="uniE616" unicode="&#xe616;" 
d="M856 409q-31 13 -63.5 17.5t-55.5 2t-39 -9.5q-7 73 9 169q18 70 -57 170q-16 22 -43 38t-56 16q-9 0 -16.5 -2t-13.5 -7.5t-10.5 -11.5t-8.5 -17t-7 -21t-6.5 -26t-6 -29.5t-5.5 -35.5q-4 -23 -7.5 -41t-8 -38.5t-9.5 -37.5t-11 -30q-31 -68 -112 -111q-16 -8 -36 -14.5
t-31 -10t-20 -13t-12 -25.5q-4 -23 -9.5 -95.5t-8 -163t9.5 -166t39 -88.5q30 -14 138.5 -26.5t211.5 -12.5q27 0 51 2.5t44 8t36 12t30.5 18.5t25.5 22t21.5 27t17.5 30t16 35t14.5 38.5t14.5 42.5q1 2 4 11.5t5 15t5.5 14.5t7.5 17q50 104 57 164q5 37 -2 65t-24.5 46.5
t-35.5 29.5t-43 21zM899 255q-5 -44 -53 -144q-23 -47 -29 -65q-7 -20 -15 -47.5t-12.5 -41t-12.5 -32.5t-15 -28t-19.5 -20t-27.5 -15.5t-36.5 -7.5t-50.5 -3q-76 0 -180.5 13.5t-131.5 24.5q-16 7 -20.5 104t0.5 195.5t13 111.5q7 12 16.5 19t33 18t32.5 15q46 25 72 58
t50 86q9 21 14 47t10 66.5t8 57.5q1 9 2.5 22t3 21t3.5 17t5.5 14t9.5 7q3 1 10 -4.5t15 -14.5t16 -20q49 -68 39 -108l-3 -25q-3 -17 -6 -54t-3.5 -69.5t6 -61.5t20.5 -38q9 -5 18 -5q7 0 13 2t14 6q26 12 50 12q33 0 76 -17t56.5 -37t8.5 -59zM160 364q-54 0 -75 -26
t-21 -72v-165v-55v-120q0 -13 1 -23t4 -20t8 -18.5t12.5 -15t17.5 -11.5t23.5 -7.5t29.5 -2.5q54 0 75 26t21 72v120v55v165q0 46 -21 72t-75 26zM192 46v-122q0 -41 -32 -41t-32 41v122v55v167q0 41 32 41q15 0 23.5 -10.5t8.5 -30.5v-167v-55z" />
    <glyph glyph-name="uniE617" unicode="&#xe617;" 
d="M211 406q-6 -6 -13 -9.5t-15 -3.5t-15.5 3t-13.5 9t-9 13.5t-3 15t3 15t9 13.5q60 61 98 109q46 59 73 122q27 60 44 79q34 40 89 40q8 0 15.5 -0.5t14.5 -1.5t13 -3l4 -2q13 -5 23.5 -12.5t18.5 -17t15 -20.5l1 -3q17 -30 17 -72q0 -37 -13 -74l-12 -34
q-6 -17 -13.5 -34t-14 -31.5t-15.5 -31.5h243q40 0 67 -19.5t40 -50.5q8 -21 8 -46q0 -8 -0.5 -16t-2.5 -15.5t-5 -14.5q-6 -13 -12 -23q17 -18 24 -38q9 -22 9 -45q0 -22 -9 -46q-9 -22 -27 -40q9 -14 11 -20q9 -23 9 -46q0 -11 -2.5 -23t-6.5 -22q-19 -45 -60 -62
q7 -21 7 -44t-8 -46q-13 -32 -40 -51t-67 -19h-307q-6 0 -11 2l-199 50q-16 4 -25 18t-5 30q3 11 10.5 18.5t17.5 10.5t21 1l196 -49h302q13 0 21 5t11 14l2 6v4q1 3 1 6q0 9 -3 16q-7 19 -30 20h-1h-1h-45q-16 0 -27.5 11.5t-11.5 28.5q0 16 11.5 28t27.5 12h45h1h2h59
q23 0 31 20q3 7 3 15q0 10 -3 16q-2 4 -4.5 7.5t-6 6.5t-8.5 4.5t-11 1.5h-1h-68q-11 0 -20.5 5.5t-15 15t-5.5 20.5q0 17 12 28t29 11h68h2h5h1h7q23 0 32 20q1 3 2 7t1 9q0 10 -3 16q-7 19 -31 19h-1h-9h-3h-71q-11 0 -20.5 5.5t-15 15t-5.5 20.5q0 5 1 9.5t3 8.5t5 7
t6.5 6t7.5 5t8.5 3t9.5 1h71h2q22 0 30 19q3 8 3 17t-3 16q-8 19 -32 19h-256q-19 0 -36 9q-15 9 -26 26q-20 32 -3 68q2 4 5.5 11.5t6 13t6 12.5t6.5 14l6 14q12 29 27 68q2 7 3.5 13t3 12.5t2 13t0.5 11.5q0 20 -7 35l-1 1q-1 1 -2.5 3t-2.5 3.5t-2.5 2.5t-3.5 2t-3 2
l-3 1q-5 2 -17 2q-18 0 -28 -13q-13 -15 -31 -58q-30 -70 -83 -139q-35 -44 -105 -116z" />
    <glyph glyph-name="uniE618" unicode="&#xe618;" 
d="M901 -142h-55q0 44 -12.5 86.5t-34 79.5t-52.5 68.5t-68 53.5t-80.5 34.5t-88.5 12.5q-90 0 -168 -46.5t-123 -123.5t-45 -165h-56q0 119 69.5 215t180.5 138q-67 35 -102.5 106t-35.5 156q0 79 35.5 143t99.5 100.5t145 36.5q61 0 113 -21.5t88.5 -58.5t57.5 -89
t21 -111q0 -85 -35.5 -156t-102.5 -106q111 -42 180 -138t69 -215zM734 473q0 37 -11 71.5t-31 62t-47 48t-62 31.5t-73 11q-97 0 -160.5 -64.5t-63.5 -159.5q0 -37 11 -71.5t31 -62t47 -47.5t62 -31.5t73 -11.5q97 0 160.5 64.5t63.5 159.5z" />
    <glyph glyph-name="uniE619" unicode="&#xe619;" 
d="M644 387q39 30 61 74.5t22 94.5q0 89 -63 152t-152 63t-152 -63t-63 -152q0 -50 22 -94.5t61 -74.5q-121 -48 -183 -163q-43 -79 -43 -169v-72q0 -14 10.5 -24.5t25.5 -10.5h644q15 0 25.5 10.5t10.5 24.5v72q0 111 -62.5 201.5t-163.5 130.5zM272 375q1 1 2 4v2v1l1 4v8
v2v1t-1 1v2h-1q0 2 -2 5q-2 5 -5 8v1h-1l-3 4l-4 2l-4 2q-19 9 -33.5 24t-22.5 34t-8 40q0 38 23 67t59 38q14 3 22 15.5t4.5 27t-16 22.5t-27.5 4q-60 -14 -98.5 -63t-38.5 -111q0 -69 47 -120q-100 -51 -137 -157q-17 -47 -17 -97v-55q0 -15 10.5 -25.5t25.5 -10.5
t25.5 10.5t10.5 25.5v55q0 74 45 132t117 76q9 1 16.5 6.5t10.5 14.5zM859 400q47 51 47 120q0 61 -37 109t-96 64q-7 2 -14 1t-13 -4.5t-10.5 -9t-6.5 -12.5q-1 -6 -1 -11.5t2.5 -11t5.5 -9.5t8 -7.5t11 -4.5q23 -6 41 -21.5t28 -37t10 -45.5q0 -32 -17.5 -58.5
t-46.5 -39.5l-4 -2l-4 -2l-3 -4h-1v-1q-3 -3 -5 -8q-2 -4 -2 -5h-1v-2q-1 0 -1 -2v-2v-8q0 -2 1 -4v-1v-2l2 -4q3 -9 10.5 -14.5t16.5 -6.5q72 -18 117 -76t45 -132v-55q0 -8 3 -14.5t8 -11t11.5 -7.5t13.5 -3q15 0 25.5 10.5t10.5 25.5v55q0 54 -19 103.5t-53.5 88
t-81.5 62.5z" />
    <glyph glyph-name="uniE61A" unicode="&#xe61a;" 
d="M924 24h-199h-328h-42h-11l-116 -111q-12 -12 -30 -12v0q-18 1 -30 12v1h-1q-2 3 -4 5l-1 2l-1 1v1q-2 2 -2 3t-1 2v1q-1 3 -2 5q-1 4 -1 8v82h-7h-50q-17 0 -29.5 12t-12.5 29v585q0 16 12.5 28t29.5 12h826q18 0 30.5 -12t12.5 -28v-585q0 -17 -12.5 -29t-30.5 -12z
M298 432q-23 0 -43 -11t-31.5 -30t-11.5 -41q0 -33 25 -57t60.5 -24t60.5 24t25 57q0 14 -4.5 26.5t-12 22.5t-18 17.5t-23.5 11.5t-27 4zM511 432q-35 0 -60 -24t-25 -57.5t25 -57.5t60.5 -24t60.5 24t25 57q0 10 -2.5 19t-6.5 17t-10 15t-13.5 13t-16 10t-18 6t-19.5 2z
M725 432q-36 0 -61 -24t-25 -57.5t25 -57.5t60.5 -24t60.5 24t25 57q0 47 -42 70q-20 12 -43 12z" />
    <glyph glyph-name="uniE61B" unicode="&#xe61b;" 
d="M492 -80q0 -9 6.5 -15.5t15.5 -6.5t15.5 7t6.5 16v90q112 9 189 91.5t77 195.5q0 119 -84.5 203t-203.5 84t-203 -84t-84 -203q0 -6 2.5 -11t8 -8t11.5 -3q9 0 15.5 6.5t6.5 15.5q0 66 32.5 122t88.5 88.5t122 32.5q50 0 95 -19t77.5 -52t52 -78t19.5 -94
q0 -66 -32.5 -122.5t-89 -89t-122.5 -32.5q-22 0 -22 -22v-112zM515 -179zM481 -179q0 14 10 23.5t23.5 9.5t23.5 -9.5t10 -23.5t-10 -23.5t-23.5 -9.5t-23.5 9.5t-10 23.5zM514 806q-103 0 -197.5 -40.5t-162.5 -108.5t-108.5 -162.5t-40.5 -197.5q0 -173 104 -308
t266 -181q1 0 6 -1q6 0 11.5 3t8.5 8t3 11q0 4 -2 8t-4 6.5t-4.5 4t-4.5 2.5h-1q-148 42 -243.5 165.5t-95.5 281.5q0 94 37 180.5t99 148.5t148.5 99t181 37t180.5 -37t148 -99t99 -148.5t37 -180.5q0 -158 -95.5 -282t-244.5 -165q-1 -1 -3.5 -2t-6.5 -6.5t-4 -12.5
q0 -9 6.5 -15.5t15.5 -6.5l7 1q162 46 265.5 181t103.5 308q0 83 -25.5 160.5t-72.5 140t-109.5 110t-140.5 73t-161 25.5z" />
    <glyph glyph-name="uniE61C" unicode="&#xe61c;" 
d="M568 41q-17 15 -40.5 22.5t-51.5 7.5q-55 0 -90 -30q-36 -29 -35 -78q-1 -49 35 -80q17 -14 40 -21.5t49 -7.5h1q58 -1 93 29q35 31 35 80t-36 78zM724 691q-38 29 -89 43t-115 14q-94 0 -162 -20q-33 -11 -62.5 -24t-55.5 -29l-16 -10l85 -146l21 13q8 4 16.5 9t18.5 9
q7 4 14 6l14 6q7 2 14 5l22 6q11 3 22 5l10 2h10q5 1 10 1h9q29 0 47.5 -5t26.5 -13q19 -18 19 -51q0 -13 -3.5 -23.5t-9.5 -19.5q-8 -10 -17.5 -20t-21.5 -20t-25.5 -20.5t-27.5 -22.5q-11 -8 -20.5 -17t-18.5 -19t-17 -21q-12 -17 -21.5 -37t-16.5 -42q-2 -6 -3.5 -12.5
t-2.5 -13.5l-2 -14q-1 -7 -1.5 -14.5t-0.5 -15.5q0 -18 3 -40l1 -18h186v20q0 22 4 40t11 31q17 28 40 50q13 12 26.5 22.5t28.5 20.5q16 11 31 24t29 27q14 15 26 33t21 39q19 42 19 105q0 98 -76 157z" />
    <glyph glyph-name="uniE61D" unicode="&#xe61d;" horiz-adv-x="1025" 
d="M936 677q-88 88 -212 88t-212 -88q-88 88 -212 88q-125 0 -212 -88q-88 -88 -88 -213t88 -213l408 -409q3 -4 7.5 -5.5t8.5 -1.5q10 0 17 7l407 409q88 88 88 213t-88 213zM903 284l-391 -393l-391 393q-74 74 -74 180t74 180q36 37 82 56t97 19q14 0 28.5 -1.5t28.5 -5
t27 -8t26 -10.5t25 -13.5t23 -16.5t21 -20l33 -33l33 33q36 37 82 56t97 19q105 0 179 -75q74 -74 74 -180t-74 -180z" />
    <glyph glyph-name="uniE61E" unicode="&#xe61e;" 
d="M537 676q-52 0 -97 -26.5t-71.5 -71.5t-26.5 -96q6 -9 12 -9q3 0 6 2t5 4l2 3q0 72 48.5 120.5t121 48.5t121 -48.5t48.5 -120.5q0 -56 -28.5 -98t-78.5 -61q-74 -26 -83 -97h26q2 18 7.5 31.5t16 21.5t16.5 11t18 8q56 19 94 71t38 113q0 78 -58.5 136t-136.5 58z
M532 116zM497 116.5q0 14.5 10.5 24.5t24.5 10q4 0 8 -1t7.5 -2.5t6.5 -4t5.5 -5.5t4 -6.5t2.5 -7.5t1 -8q0 -14 -10.5 -24t-24.5 -10t-24.5 10t-10.5 24.5zM527.5 845q-90.5 0 -173 -35t-142 -94.5t-94.5 -142t-35 -172.5q0 -150 90 -269l-62 -152l207 29q98 -53 210 -53
q90 0 172.5 35.5t142 95t94.5 141.5t35 172.5t-35 173t-94.5 142t-142 94.5t-173 35zM528 -13q-88 0 -195 53l-55 -7l-122 -17l38 91v1l8 19l7 17q-21 26 -38 56t-31 63t-21.5 68.5t-7.5 69.5q0 81 34.5 157.5t91 133t133 90.5t158 34t158 -34t133 -90.5t90.5 -133
t34 -157.5t-34 -157.5t-90.5 -132.5t-133 -90t-157.5 -34zM360 44z" />
    <glyph glyph-name="uniE61F" unicode="&#xe61f;" horiz-adv-x="1000" 
d="M488 472q-52 0 -85 -36.5t-33 -91.5q0 -19 3.5 -35.5t11 -31.5t18.5 -27q33 -38 86 -38t87 38.5t34 92.5t-34.5 91.5t-87.5 37.5zM781 578h-562q-21 0 -41 -8t-34 -22.5t-22 -34t-8 -40.5v-334q0 -43 30.5 -74t74.5 -31h262l230 -158v158h70q44 0 74.5 31t30.5 74v334
q0 44 -30.5 74.5t-74.5 30.5zM650 266q-3 -7 -7 -14t-8.5 -13.5t-10.5 -13t-12.5 -12.5t-13.5 -12q-38 -29 -85 -33l10 -4q40 -16 62 -16q3 0 7.5 0.5t10.5 1.5l-19 -42q-2 -1 -4 -1h-5h-4q-12 0 -29 5t-38 15q-37 18 -58 18q-10 0 -19 -3t-15 -9l-15 21q7 7 16.5 12.5
t21.5 7.5q-41 13 -70 42q-9 9 -16.5 19t-13.5 21t-10 22q-5 16 -8 32.5t-3 33.5q0 12 1.5 23t4 22t6.5 21.5t9.5 20t12 18.5t14.5 18q12 12 26 22t29.5 16t33.5 9.5t38 3.5q13 0 25.5 -1.5t24 -4.5t22 -7t20.5 -9.5t19 -12.5t17 -15q24 -25 36.5 -56t12.5 -69q0 -20 -4 -39
t-12 -38z" />
    <glyph glyph-name="uniE620" unicode="&#xe620;" horiz-adv-x="1069" 
d="M892 768h-718q-59 0 -100.5 -31t-41.5 -75v-537q0 -44 41.5 -75t100.5 -31h359l283 -211l-15 211h91q59 0 100.5 31t41.5 75v537q0 44 -41.5 75t-100.5 31v0zM252 315q-36 0 -62 25.5t-26 62t26 62t62 25.5q24 0 44 -12t31.5 -32t11.5 -44q0 -36 -25.5 -61.5t-61.5 -25.5
v0zM439 402q0 37 25.5 62.5t61.5 25.5q24 0 44 -12t32 -32t12 -44q0 -9 -2 -17.5t-5 -16.5t-8 -15t-11 -12.5t-13 -10.5t-14.5 -8.5t-16.5 -5t-18 -1.5q-17 0 -33.5 7t-28 18.5t-18.5 28t-7 33.5v0zM807 316q-36 0 -61.5 25.5t-25.5 62t25.5 62t61.5 25.5t62 -25.5t26 -61.5
q0 -24 -12 -44t-32 -32t-44 -12v0zM807 316z" />
    <glyph glyph-name="uniE621" unicode="&#xe621;" 
d="M51 742v-729h133v-195l382 192l15 3h398v729h-928zM529 115h-72v79h72v-79zM633 417q-6 -12 -14 -23t-17.5 -20.5t-20.5 -18.5q-16 -13 -27.5 -26t-18 -26t-10 -22t-3.5 -14v-22h-58v32q0 29 14.5 57t50.5 60q26 23 36 47q2 7 4 13t3 11.5t1.5 11.5t0.5 12
q0 21 -4.5 36.5t-14.5 26.5q-20 21 -55.5 21t-60 -27.5t-24.5 -89.5h-75q4 91 49.5 135t110.5 44q71 0 112 -39q20 -20 30.5 -45t10.5 -56q-1 -43 -20 -78z" />
    <glyph glyph-name="uniE622" unicode="&#xe622;" 
d="M512 790q-104 0 -198 -30.5t-162 -82.5t-108.5 -124t-40.5 -151q0 -85 45 -160t124 -130q-67 -87 -140 -134q149 15 257 74q105 -39 223 -39q138 0 255.5 52t185.5 141.5t68 195t-68 195t-185.5 141.5t-255.5 52zM511 43q-58 1 -117.5 12.5t-111.5 31.5q-16 -9 -33 -19.5
t-26.5 -17t-22.5 -13.5t-24.5 -11.5t-29 -8t-39.5 -6.5q37 24 55.5 43t51.5 62q-83 57 -132 130t-49 156q0 99 68 183t178 131t232 47q48 0 95 -8t89.5 -22.5t81.5 -35t71 -45.5t58.5 -54.5t45 -61t28.5 -66t10 -68.5q0 -94 -67 -178.5t-178 -134t-234 -46.5zM486 280h-5
q-5 0 -9 2t-7 5t-5 7t-2 9v2q0 31 12 53q13 22 44 46q30 24 43.5 44.5t13.5 47.5q0 29 -20.5 47.5t-55.5 18.5t-64 -16q-11 -6 -22.5 0.5t-11.5 19.5q0 14 12 20q7 4 13 6.5t12.5 5t13.5 4.5t13.5 3.5t13.5 2.5t14 1.5t14 0.5q57 0 90 -30q11 -10 18.5 -22t11.5 -26t4 -30
q0 -11 -2 -21.5t-5.5 -20.5t-8.5 -19q-8 -14 -21 -28.5t-32 -29.5q-29 -25 -39 -40q-3 -3 -5 -7.5t-3 -9.5t-1.5 -11t-0.5 -12q0 -10 -7 -16.5t-16 -6.5zM488.5 260q12.5 0 21.5 -9q1 -1 2.5 -3t2.5 -3.5t1.5 -3t1.5 -3.5v-4q1 -2 1 -4q-1 -13 -9 -22q-9 -9 -22 -9
q-12 0 -21 8.5t-9 22.5q0 6 2 11.5t7 9.5q9 9 21.5 9z" />
    <glyph glyph-name="uniE623" unicode="&#xe623;" 
d="M954 -114l-284 284q28 31 47.5 67.5t30 78t10.5 85.5q0 70 -27.5 134t-74 110.5t-110.5 74t-134 27.5q-95 0 -174.5 -46.5t-126 -126t-46.5 -174t46.5 -174t126 -126t174.5 -46.5q131 0 229 87l284 -284q6 -5 14.5 -5t14.5 6t6 14.5t-6 13.5zM106 401q0 126 89.5 215.5
t216 89.5t216 -89.5t89.5 -215.5q0 -83 -41 -153.5t-111.5 -111.5t-153 -41t-153 41t-111.5 111.5t-41 153.5z" />
    <glyph glyph-name="uniE624" unicode="&#xe624;" 
d="M539 697q3 2 6 3.5t5 1.5l2 1h343q20 0 20 -20v-341q0 -10 -6 -16l-421 -421l-9 -6q-11 -2 -20 6l-32 32q-302 300 -310 309q-7 9 -6.5 16t6.5 13q420 419 422 422zM558 728q-14 0 -23 -4t-19 -13q-4 -3 -45.5 -45t-101.5 -102t-117.5 -118t-104 -104.5t-50.5 -49.5
q-15 -19 -13 -35.5t17 -31.5q5 -4 338 -336q19 -18 36 -17.5t34 17.5q48 48 419 420q5 5 7.5 9.5t4 11.5t1.5 17v339q0 11 -6 21t-16.5 15.5t-21.5 5.5h-171h-168zM838 535q0 -16 -4.5 -30t-13 -25.5t-19.5 -20.5t-25 -13.5t-29 -4.5q-37 0 -64 27.5t-27 66.5q0 25 12.5 47
t33.5 34.5t45 12.5q38 0 64.5 -27.5t26.5 -66.5zM747 601q-27 0 -46.5 -19.5t-19.5 -47t19.5 -47t47 -19.5t47 19.5t19.5 47.5q0 18 -9 33t-24.5 24t-33.5 9z" />
    <glyph glyph-name="uniE625" unicode="&#xe625;" 
d="M881 41l-237 236q25 40 35 85.5t5 90.5t-25.5 88.5t-54.5 77.5q-82 82 -197.5 82t-197 -81.5t-81.5 -197t82 -196.5q40 -45 100.5 -64.5t124 -13t115.5 36.5l237 -237q16 -16 32.5 -17t26.5 6t23.5 20.5t20.5 24t7 27t-16 32.5zM532 298q-26 -26 -59 -39t-67 -13
t-67.5 13t-59.5 39q-52 52 -52 126t52 127q35 34 81 46t92 0t80 -46q21 -21 34 -46.5t16.5 -53t0 -54.5t-16.5 -52.5t-34 -46.5z" />
    <glyph glyph-name="uniE626" unicode="&#xe626;" 
d="M482 800h-482v-482l542 -542l482 482zM256.5 458q-23.5 0 -43 11.5t-31 31t-11.5 43.5q0 35 25 60t60.5 25t60.5 -25t25 -60q0 -24 -11.5 -43.5t-31 -31t-43 -11.5z" />
    <glyph glyph-name="uniE627" unicode="&#xe627;" 
d="M802 463q-11 1 -37.5 -2.5t-60 -8t-49.5 -5.5q2 10 23 86q2 9 7.5 26.5t8 26.5t6.5 27t3.5 28.5t-0.5 29.5q-4 31 -22.5 51.5t-40.5 25t-44.5 -8.5t-33.5 -43l-42 -102q-3 -6 -10 -18l-10 -16q-3 -4 -9 -13t-10 -13l-11 -12q-8 -7 -16 -13.5t-19.5 -15.5t-26.5 -20
q-57 -41 -95 -72q-17 -15 -18 -32v-351q0 -9 4 -17t11 -13q19 -14 60.5 -26.5t89 -21.5t96 -14.5t83.5 -5.5h8h21q6 0 17 0.5t17.5 1.5t15.5 3.5t17 6t17 8.5q12 6 21.5 20.5t11.5 16.5q20 19 28.5 44.5t10 45.5t5.5 23q23 24 33.5 53t12.5 54t3 28q10 22 13 34.5t4.5 24.5
t5.5 24q10 43 9 72t-16.5 47t-37.5 26t-54 10zM169 432q-16 0 -29.5 -7.5t-21.5 -21.5t-8 -30v-359q0 -9 3 -18t8.5 -16.5t12.5 -13t16.5 -8.5t18.5 -3q25 0 42 17.5t17 41.5v359q0 25 -17 42t-42 17v0zM169 432z" />
    <glyph glyph-name="uniE628" unicode="&#xe628;" 
d="M885 101q-19 -15 -10 -38q1 -3 2 -6.5t2.5 -14.5t0.5 -21q-3 -41 -41 -58q-16 -7 -19 -26q-4 -22 -15 -43q-10 -18 -22.5 -29.5t-21.5 -12.5q0 1 -17.5 2t-43.5 2t-38 2q-26 2 -56.5 8.5t-64 15t-55.5 12.5q-52 9 -110 17q-66 9 -99 12q-16 2 -45.5 3.5t-39.5 1.5h-6
q-14 -4 -20 10q-12 24 -18 40q-17 55 -27 138q-8 62 -6 104q1 18 5 40q2 12 16 15q43 7 109 21q11 2 21 4.5t26 7.5q17 4 32 13t27 23q29 30 92 96q32 35 48 53q25 28 77 65q27 20 50 43t41 49q13 19 35 65q4 9 10 18q12 20 35 14q13 -4 22 -12.5t15 -21.5q15 -30 11 -76
q-2 -17 -7.5 -34t-15.5 -39q-39 -82 -48 -108q-4 -13 -6 -24q-2 -24 20 -35q15 -7 41 -11q10 -1 26 -3.5t30 -5t26 -4.5q25 -5 33 -10q5 -3 9 -8t5.5 -8t2.5 -6q17 -39 -12 -81q-4 -6 -5.5 -12.5t-0.5 -12.5t5 -12l3 -7t7 -16.5t6.5 -23t2.5 -26t-6 -26t-18 -23.5z" />
    <glyph glyph-name="uniE629" unicode="&#xe629;" 
d="M512 781q-98 0 -187 -38t-153.5 -102.5t-102.5 -153.5t-38 -187t38 -187t102.5 -153.5t153.5 -102.5t187 -38q78 0 151.5 24.5t132.5 69t103.5 103.5t69 132.5t24.5 151.5q0 98 -38 187t-102.5 153.5t-153.5 102.5t-187 38zM512 -143q-90 0 -172 35.5t-141 94.5
t-94.5 141t-35.5 172t35.5 172t94.5 141t141 94.5t172 35.5q72 0 139.5 -22.5t122 -63.5t95.5 -95.5t63.5 -122t22.5 -139.5q0 -168 -113 -294q-108 -122 -268 -144q-31 -4 -62 -5zM531 589h-38v-270h-268v-38h268v-268h38v268h270v38h-270v270z" />
    <glyph glyph-name="uniE62A" unicode="&#xe62a;" 
d="M562 76h-100v174h-174v100h174v174h100v-174h174v-100h-174v-174zM66 300q0 -73 22.5 -141t63.5 -123t96 -96t123 -63.5t141 -22.5q91 0 173.5 35t142.5 95t95 142.5t35 173.5t-35 173.5t-95 142.5t-142.5 95t-173.5 35q-73 0 -141 -22.5t-123 -63.5t-96 -96t-63.5 -123
t-22.5 -141z" />
    <glyph glyph-name="uniE62B" unicode="&#xe62b;" 
d="M528 839q-90 0 -171 -35t-139.5 -93.5t-93.5 -139.5t-35 -170t35 -170.5t93.5 -140t139.5 -93t170.5 -34.5t170.5 34.5t139.5 93t93.5 140t35 170.5q0 71 -22.5 138t-63 120.5t-94 94.5t-120.5 63t-138 22zM720 373h-164v-165q0 -11 -8.5 -19.5t-19.5 -8.5t-19.5 8.5
t-8.5 19.5v165h-164q-4 0 -8.5 1.5t-7.5 4t-5.5 6t-4 7.5t-1.5 8.5t1.5 8.5t4 7.5t5.5 6t7.5 4t8.5 1.5h164v166q0 12 8.5 20t19.5 8t19.5 -8t8.5 -20v-166h164q7 0 13.5 -3.5t10 -10t3.5 -13.5q0 -12 -8 -20t-19 -8z" />
  </font>
</defs>
</svg>
